<svg id="Layer_1" data-name="Layer 1" xmlns="http://www.w3.org/2000/svg" xmlns:xlink="http://www.w3.org/1999/xlink" viewBox="0 0 1624.89 384.07"><defs><style>.cls-1{fill:none;}.cls-2{fill:url(#linear-gradient);}.cls-3{fill:url(#linear-gradient-2);}.cls-4{fill:url(#linear-gradient-3);}.cls-5{fill:url(#linear-gradient-4);}.cls-6{fill:url(#linear-gradient-5);}.cls-7{clip-path:url(#clip-path);}.cls-8{fill:url(#linear-gradient-6);}.cls-9{fill:url(#linear-gradient-7);}.cls-10{fill:url(#linear-gradient-8);}.cls-11{fill:url(#linear-gradient-9);}.cls-12{fill:url(#linear-gradient-10);}.cls-13{fill:url(#linear-gradient-11);}</style><linearGradient id="linear-gradient" x1="1193.49" y1="580.56" x2="1768.7" y2="580.56" gradientUnits="userSpaceOnUse"><stop offset="0" stop-color="#5ba4d9"/><stop offset="0.66" stop-color="#60c1a1"/></linearGradient><linearGradient id="linear-gradient-2" x1="693.66" y1="533.14" x2="1701.66" y2="561.14" xlink:href="#linear-gradient"/><linearGradient id="linear-gradient-3" x1="693.07" y1="554.51" x2="1701.07" y2="582.51" xlink:href="#linear-gradient"/><linearGradient id="linear-gradient-4" x1="693.17" y1="550.72" x2="1701.17" y2="578.72" xlink:href="#linear-gradient"/><linearGradient id="linear-gradient-5" x1="693.91" y1="524.34" x2="1701.91" y2="552.34" xlink:href="#linear-gradient"/><clipPath id="clip-path" transform="translate(-143.81 -415.21)"><path class="cls-1" d="M590,467.1c-9.21-31.49-33-41.8-63.49-29.34-36.91,15.08-68.87,38.47-101.18,61.13-44.58,31.3-88.59,63.4-133.15,94.69-11.27,7.93-23.75,14.15-37.07,22-7.45-41.37-9.76-80.55-1.53-119.81.61-2.85,6.54-6.92,9.53-6.56,15,1.89,29.95,4.88,44.79,8.08,1.49.32,3.27,4.95,2.89,7.25-.94,5.72-3.05,11.24-5.4,19.3L387.3,492c-16.53-24.61-31.94-47.56-48.63-72.45-3.74,10.3-6.49,17.88-9.34,25.77-3.77-1.09-6.44-2.15-9.19-2.61-19.7-3.33-39.36-8.84-59.11-9.26-31.14-.69-53,15.37-60,44.71-13.08,54.61-11.34,109.39,4.88,163.39,3.46,11.56,10.1,21.29,20.77,27.64,16.32,9.72,32.23,4.56,47.52-2.41,27.09-12.37,51.95-28.31,76.24-45.17v142.1l46.66,35.56h.6V588.15c34.63-24.71,69.08-49.71,103.9-74.15,11.61-8.16,24.42-14.63,38.45-22.92,1.7,10.8,3.35,19.47,4.44,28.22,3.52,28.63,3.58,57.27-1,85.81-1.86,11.42-4.41,14.6-15.58,13.24-13.48-1.64-26.71-5.4-40-8.36-5-1.13-5.45-4.08-3.62-8.64,2.07-5.09,3.24-10.54,5.5-18.28l-81.81,31.45,48.69,72.78c3.66-10.36,6.28-17.73,9.25-26.15,3.75,1.17,6.47,2,9.17,2.89,20.75,6.8,41.8,11.41,63.85,9.32,29.54-2.77,48.64-16.88,55.57-45.65C607.39,574,605.53,520.08,590,467.1Z"/></clipPath><linearGradient id="linear-gradient-6" x1="607.12" y1="514.73" x2="210.92" y2="655.95" xlink:href="#linear-gradient"/><linearGradient id="linear-gradient-7" x1="216.37" y1="609.71" x2="196.29" y2="562.4" gradientUnits="userSpaceOnUse"><stop offset="0" stop-color="#599b87" stop-opacity="0.4"/><stop offset="0.11" stop-color="#56a18d" stop-opacity="0.33"/><stop offset="0.47" stop-color="#4db09b" stop-opacity="0.15"/><stop offset="0.77" stop-color="#48baa4" stop-opacity="0.04"/><stop offset="1" stop-color="#46bda7" stop-opacity="0"/></linearGradient><linearGradient id="linear-gradient-8" x1="538.23" y1="492.13" x2="538.23" y2="492.13" gradientUnits="userSpaceOnUse"><stop offset="0" stop-color="#4362ac" stop-opacity="0.5"/><stop offset="0.28" stop-color="#4f88a8" stop-opacity="0.3"/><stop offset="0.57" stop-color="#58a7a4" stop-opacity="0.13"/><stop offset="0.81" stop-color="#5ebaa2" stop-opacity="0.04"/><stop offset="1" stop-color="#60c1a1" stop-opacity="0"/></linearGradient><linearGradient id="linear-gradient-9" x1="523.37" y1="479.75" x2="459.39" y2="479.75" xlink:href="#linear-gradient-8"/><linearGradient id="linear-gradient-10" x1="197.74" y1="472.96" x2="282.39" y2="435.27" gradientUnits="userSpaceOnUse"><stop offset="0" stop-color="#badca0" stop-opacity="0.5"/><stop offset="0.12" stop-color="#aad7a0" stop-opacity="0.41"/><stop offset="0.38" stop-color="#8acea1" stop-opacity="0.23"/><stop offset="0.63" stop-color="#73c7a1" stop-opacity="0.11"/><stop offset="0.84" stop-color="#65c2a1" stop-opacity="0.03"/><stop offset="1" stop-color="#60c1a1" stop-opacity="0"/></linearGradient><linearGradient id="linear-gradient-11" x1="576.9" y1="635.14" x2="482.17" y2="635.14" xlink:href="#linear-gradient-8"/></defs><title>TechSwap Logo</title><path class="cls-2" d="M1645.42,697.55c-14.78-17.56-28.88-34.82-43.3-52.13,2.45-1.53,4.88-.88,7.17-1s4.79,0,6.9,0l.53-.47a1,1,0,0,0,.21-.26,1.59,1.59,0,0,0,.09-.33c0-.11,0-.22.06-.33s0-.45,0-.68v-2q0-85.12,0-170.25c0-.23,0-.45,0-.68s0-.45,0-.68a1.91,1.91,0,0,1,.06-.33c0-.1.08-.2.12-.3,2.41-.73,37.3-.94,42.16-.17v11.83c1.13-.92,1.66-1.3,2.13-1.75,9.95-9.58,22.16-13.59,35.75-14.29,33.09-1.7,59,21,67.59,49.78,6.62,22.34,4.49,44-7.56,64.16-10.08,16.9-24.81,28.07-44.52,31.79-14.67,2.78-29,1.31-42.16-6.35-3.8-2.22-7.16-5.18-10.66-7.76-.68,2.06-.86,45.26-.13,49.2,4.87.82,10-.47,15.25,1.09C1665.33,662.82,1655.59,679.8,1645.42,697.55Zm46.11-194.06a62.91,62.91,0,0,0-7.46,1c-10.39,2.42-17.79,8.47-21.82,18.34A38.88,38.88,0,0,0,1660,542.2c1.8,15.7,11.8,24.11,22.15,27a39,39,0,0,0,16,1.1c9.8-1.36,18-5.67,22.83-14.43,6.92-12.53,7-25.48-.23-37.87C1714.64,507.65,1704.61,503.76,1691.53,503.49ZM1387,548.21l.74.07q10.92,36,21.87,72.08h39.69c14.93-46.16,29.85-92.26,44.92-138.85H1449l-19.83,72.78h-.58q-10.71-36.28-21.4-72.59h-39.66c-3.56,12.11-7.07,24.16-10.67,36.19s-6.94,24.18-11.38,36c-6.57-24.1-13.13-48.21-19.65-72.16-7.32-.62-42.37-.36-44.91.29,0,3.83,2.09,5.49,5.8,6.6a56.62,56.62,0,0,1,29.27,20.4c1.35,1.77,3.78,5.75,5.22,7.84-8.31,4.44-16.91,9-25,13.29a6.77,6.77,0,0,0,.31,1c1.84,5.72,3.76,11.41,5.5,17.16a8.1,8.1,0,0,0,3.57,4.7,35.75,35.75,0,0,1,16.14,24.28,47.07,47.07,0,0,1-1.31,22.85,7.35,7.35,0,0,0,0,4.94c1.49,4.28,2.82,8.62,4.24,12.92.27.83.69,1.61,1,2.43h39.39Zm181.62,58.93v-12c-1.16,1-1.66,1.38-2.1,1.82-8.85,8.71-19.76,13.06-32,14.09-27.9,2.34-48.75-9.21-63.67-32.15a7.08,7.08,0,0,1-.83-6.66q14.58-44.58,29-89.24l1.52-4.71-11.74-.48c1.38-1.13,2-1.74,2.72-2.21a63.32,63.32,0,0,1,40-10.75c9.78.6,19,2.86,27.27,8.23,3.23,2.1,6.14,4.68,9.55,7.31.75-3.85-.11-7.78.53-11.72h41.87V607C1608.42,607.76,1572.94,607.93,1568.66,607.14Zm.49-69.08-.47-.1c-.11-1.69-.17-3.39-.33-5.08a30.66,30.66,0,0,0-23.85-27.47,37.45,37.45,0,0,0-17.36-.18c-11.08,2.52-18.88,9-22.73,19.63a38.41,38.41,0,0,0-.46,25c3.34,10.65,10.51,17.67,21.44,20.49a41.33,41.33,0,0,0,11.87,1.31c14.65-.61,25.2-8.46,29.24-20.73C1567.86,546.81,1568.29,542.37,1569.15,538.06ZM1314.5,516.47a17,17,0,0,0-.77-1.55,57.36,57.36,0,0,0-23.64-21.63c-18.34-8.89-37.25-9.35-56.27-2.53-17.73,6.36-30.56,21.25-29.62,43.4.56,13.3,6.7,23.22,17.83,30.35,6.88,4.42,14.49,7.19,22.28,9.51,6.24,1.86,12.53,3.52,18.72,5.5a30.67,30.67,0,0,1,7.4,3.46c3.68,2.41,3.64,7.09.06,9.71a12.12,12.12,0,0,1-4,1.85,34.14,34.14,0,0,1-17-.16,15.63,15.63,0,0,1-2.34-1c3.84-3.41,8.55-5.28,11.72-9.16-4.44-2.1-62.91-18.76-65.36-18.68-.54,2.91,3.94,55.91,5.25,59.26,4.14-2,7.62-4.94,11.57-7.24.52.39,1,.71,1.42,1.07,7.93,6.68,17.14,10.68,27.25,12.91,7.32,1.62,14.73,1.74,22.18,1.72a73.47,73.47,0,0,0,28.38-5.6c10.47-4.37,18.9-11.09,23.63-21.58a45.22,45.22,0,0,0,2.88-28.2c-2-10.08-7.46-17.82-15.89-23.68a64.89,64.89,0,0,0-18.18-8.59c-7.85-2.42-15.83-4.4-23.68-6.81a30.2,30.2,0,0,1-8-3.73c-3-2-3.09-6-.44-8.56a8.5,8.5,0,0,1,3.17-1.93c6.94-2.13,15.79-1,21.19,5.65,1.35,1.67,2.56,3.44,4.09,5.51Z" transform="translate(-143.81 -415.21)"/><path class="cls-3" d="M804.05,488h-43.2v131H722.44V488h-43.2v-37H804.05Z" transform="translate(-143.81 -415.21)"/><path class="cls-4" d="M859,590.27c9.85,0,18.25-3.84,23-9.12l28.8,16.56c-11.76,16.32-29.52,24.72-52.33,24.72-41,0-66.48-27.6-66.48-63.36s25.92-63.36,63.84-63.36c35,0,61,27.12,61,63.36a69.76,69.76,0,0,1-1.44,14.4H830.2C834.76,586,845.8,590.27,859,590.27Zm22.09-43.68c-3.84-13.92-14.64-19-25.44-19-13.69,0-22.81,6.72-26.17,19Z" transform="translate(-143.81 -415.21)"/><path class="cls-5" d="M930,559.07c0-35.76,27.12-63.36,63.6-63.36,23.28,0,43.93,12.24,54.25,30.72l-31.45,18.24c-4.08-8.4-12.72-13.44-23.28-13.44-15.6,0-27.12,11.28-27.12,27.84s11.52,27.84,27.12,27.84c10.56,0,19.44-5,23.28-13.44l31.45,18c-10.32,18.72-30.72,31-54.25,31C957.16,622.43,930,594.83,930,559.07Z" transform="translate(-143.81 -415.21)"/><path class="cls-6" d="M1177.49,545.39v73.68h-36v-68.4c0-14.88-9.36-21.84-20.88-21.84-13.2,0-22.32,7.68-22.32,24.72v65.52h-36v-168h36v59.28c6.48-8.88,18.48-14.64,34.32-14.64C1156.85,495.71,1177.49,513,1177.49,545.39Z" transform="translate(-143.81 -415.21)"/><g class="cls-7"><path class="cls-8" d="M590,467.1c-9.21-31.49-33-41.8-63.49-29.34-36.91,15.08-68.87,38.47-101.18,61.13-44.58,31.3-88.59,63.4-133.15,94.69-11.27,7.93-23.75,14.15-37.07,22-7.45-41.37-9.76-80.55-1.53-119.81.61-2.85,6.54-6.92,9.53-6.56,15,1.89,29.95,4.88,44.79,8.08,1.49.32,3.27,4.95,2.89,7.25-.94,5.72-3.05,11.24-5.4,19.3L387.3,492c-16.53-24.61-31.94-47.56-48.63-72.45-3.74,10.3-6.49,17.88-9.34,25.77-3.77-1.09-6.44-2.15-9.19-2.61-19.7-3.33-39.36-8.84-59.11-9.26-31.14-.69-53,15.37-60,44.71-13.08,54.61-11.34,109.39,4.88,163.39,3.46,11.56,10.1,21.29,20.77,27.64,16.32,9.72,32.23,4.56,47.52-2.41,27.09-12.37,51.95-28.31,76.24-45.17v142.1l46.66,35.56h.6V588.15c34.63-24.71,69.08-49.71,103.9-74.15,11.61-8.16,24.42-14.63,38.45-22.92,1.7,10.8,3.35,19.47,4.44,28.22,3.52,28.63,3.58,57.27-1,85.81-1.86,11.42-4.41,14.6-15.58,13.24-13.48-1.64-26.71-5.4-40-8.36-5-1.13-5.45-4.08-3.62-8.64,2.07-5.09,3.24-10.54,5.5-18.28l-81.81,31.45,48.69,72.78c3.66-10.36,6.28-17.73,9.25-26.15,3.75,1.17,6.47,2,9.17,2.89,20.75,6.8,41.8,11.41,63.85,9.32,29.54-2.77,48.64-16.88,55.57-45.65C607.39,574,605.53,520.08,590,467.1Z" transform="translate(-143.81 -415.21)"/><path class="cls-9" d="M255.12,615.54s-54.22,29.5-100,8,61.55-57.85,61.55-57.85l53-4.38Z" transform="translate(-143.81 -415.21)"/><path class="cls-10" d="M538.23,492.13" transform="translate(-143.81 -415.21)"/><path class="cls-11" d="M517.23,441.77s27.61,17.9,22.78,49.31-58.26,53.22-58.26,53.22l-29.92-72.24L489,415.21Z" transform="translate(-143.81 -415.21)"/><path class="cls-12" d="M193.19,527.66s36.82-41,69.93-38.49S283,416.92,283,416.92L149.6,441.71Z" transform="translate(-143.81 -415.21)"/><path class="cls-13" d="M603,582.35S586.91,617,536.89,618.26s.43,69.67.43,69.67l73.53-15.38s24.36-60.69,23.93-61.55S603,582.35,603,582.35Z" transform="translate(-143.81 -415.21)"/></g></svg>