<svg id="Layer_1" data-name="Layer 1" xmlns="http://www.w3.org/2000/svg" viewBox="0 0 212 212"><defs><style>.cls-1{fill:#3991ac;}.cls-2{fill:#a3fcd1;}.cls-3{fill:#a2fbd2;}.cls-4{fill:#fd8c8c;}.cls-5{fill:#bfedfd;}.cls-6{fill:#bfecfc;}.cls-7{fill:#bcebfb;}.cls-8{fill:#bdebfc;}</style></defs><title>why-icon</title><path class="cls-1" d="M107.14,79.93c9.34,0,9.19,0,11.89,9q14.15,47.25,28.47,94.43c.72,2.38,1.35,4.8,2.14,7.16.91,2.7.76,5.19-2.24,6.14s-4.31-1.38-5.05-3.66c-1.95-6-3.84-12-5.42-18.15-.93-3.6-2.5-5-6.5-5-15.82.27-31.66.24-47.49,0-4-.06-5.58,1.48-6.49,5.13-1.45,5.8-3.35,11.49-5.12,17.21-.8,2.59-1.64,5.55-5.29,4.43S63.32,192.38,64,190c2-7.22,4.29-14.33,6.45-21.49,8.45-28,17-55.95,25.23-84,1.58-5.39,5.26-4.52,9-4.56Zm-1,60c5.16,0,10.33-.15,15.48.06,3.92.15,4.62-1.52,3.59-4.87-2.06-6.65-3.9-13.36-6.06-20-2.69-8.19-2.79-8.16-11.6-8.16-2.49,0-5,0-7.49,0a4.19,4.19,0,0,0-4.33,3.37c-2.52,8.58-5,17.17-7.67,25.72-.92,3,.23,3.92,3.1,3.86C96.14,139.88,101.13,140,106.13,140Zm.27,23c7.32,0,14.64-.08,21.95,0,3.43.06,5.22-.64,3.64-4.55a27.08,27.08,0,0,1-2-7.15c-.38-3.81-2.48-4.44-5.77-4.38-9,.16-18-.07-26.94.08-14,.25-11.33-2.71-15.85,11.95-1,3.36-.11,4.1,3,4.05C91.77,162.9,99.08,163,106.4,163Zm-.23-63c7.21,0,7.42-.08,7.43-2.82,0-5.07-3.23-10.13-6.51-10.17-4.16-.05-7.72,4.56-7.26,10.52C100.19,102.2,104.4,98.86,106.17,100Z"/><path class="cls-1" d="M166.7,55.51c.4,17.08-5.92,29.9-15.7,41.3-1.42,1.65-3.14,3.94-5.86,2.06s-2.84-4-.42-6.57A50.62,50.62,0,0,0,158,65.93c2.54-15.29-.93-29-10.74-41.08-.84-1-1.78-2-2.54-3.07-1.45-2.05-1.43-4.1.56-5.78,2.15-1.81,4-.91,5.6.95,3.55,4.2,7,8.51,9.35,13.49C164.13,38.87,167.73,47.45,166.7,55.51Z"/><path class="cls-1" d="M66.51,15.08c1.81-.05,2.61,1.18,3.32,2.57,1.06,2.1-.24,3.57-1.46,4.88A48.14,48.14,0,0,0,56.22,45.64c-3.54,17,.06,32.25,11.72,45.37a12.61,12.61,0,0,1,2.22,2.66,3.69,3.69,0,0,1-1,4.91c-1.73,1.32-3.19,1.12-4.84-.41A50.73,50.73,0,0,1,48,67.94c-2.32-16.31-.22-32.25,10.64-45.81,1.56-1.95,3.29-3.75,4.83-5.71A3.2,3.2,0,0,1,66.51,15.08Z"/><path class="cls-1" d="M106.21,70.91c-7-.16-13.43-6.65-13.43-13.51,0-7.35,6.77-14.27,13.92-14.25,7.67,0,14.06,6.82,13.8,14.69C120.26,65,113.62,71.07,106.21,70.91Zm6.48-13.25c0-3.82-1.66-6.32-5.68-6.65-3.59-.3-6.48,2.71-6.39,6.54.1,4.08,2.73,6.14,6.32,6.13C110.37,63.67,112.77,61.59,112.69,57.66Z"/><path class="cls-1" d="M143.62,56.88c.27,9.6-3.13,17.84-9.47,24.9-1.54,1.72-3.23,4.52-6.1,1.92-2.51-2.28-1.61-4.57.34-7,4.9-5.94,7.68-12.65,7.4-20.56A28.07,28.07,0,0,0,130,39.61,42.25,42.25,0,0,1,127.34,36c-1.13-1.83-.71-3.45.85-4.88s3.07-1,4.52,0c3.23,2.26,5.1,5.61,6.86,9A33.51,33.51,0,0,1,143.62,56.88Z"/><path class="cls-1" d="M83.06,30.2a3.44,3.44,0,0,1,3.24,1.9c.92,2.18.25,4.1-1.33,5.93a28.56,28.56,0,0,0-7.27,18.6A28.17,28.17,0,0,0,84,75.06c.82,1,1.57,2.14,2.41,3.16,1.61,1.93,1.19,3.73-.45,5.29-1.83,1.75-3.85,1.21-5.29-.4C72.48,74,68,63.51,70.35,51.21c1.33-7,3.85-13.79,9.43-18.86C80.75,31.47,81.56,30.35,83.06,30.2Z"/><path class="cls-2" d="M29.11,173c-7.21,0-11.06-4.4-11.59-11.7-.48-6.49,5-11.84,12.27-12,5.43-.13,11.52,6.26,11.62,11.67C41.53,167.42,35.86,173,29.11,173Zm4.62-12c0-3.16-2-4.8-4.73-4.59a4.74,4.74,0,0,0-4.38,5.18c.06,3,1.82,4.61,4.82,4.44S33.73,163.83,33.73,160.94Z"/><path class="cls-3" d="M194.4,41.77c.62,4-1.52,5.31-3.12,6.93-9.68,9.83-8.51,9.87-18.23.06-5.31-5.36-5.33-5.34-.17-10.5,2.23-2.23,4.48-4.44,6.69-6.68,1.61-1.64,3.58-2.33,5.21-.54,2.9,3.18,5.61,6.49,9,9.16A2,2,0,0,1,194.4,41.77Zm-12.19-2.72c-2.05.61-4,1.94-4.05,3.81a4,4,0,0,0,4.17,3.94A4,4,0,0,0,186.15,43C186.09,41,184.14,39.78,182.21,39.05Z"/><path class="cls-4" d="M176.84,138c3.18,4.58,7.14,2.23,11.28.11a2.28,2.28,0,0,1,3.12,1.67c.42,1.68.53,3.43-1,4.59-2.79,2.15-2.73,4,0,6.23a3.62,3.62,0,0,1,.19,5.71,3.86,3.86,0,0,1-5.71-.8c-1.66-2.28-3.35-2.42-5.19-.13a4.45,4.45,0,0,1-7,.44c-2-2-.45-4.14,1.67-5.75,3-2.28,1.48-4.29-.8-5.91a3.07,3.07,0,0,1-1.41-3.82C172.66,138.48,174.23,138.05,176.84,138Z"/><path class="cls-5" d="M106.13,140c-5,0-10-.07-15,0-2.87.06-4-.84-3.1-3.86,2.63-8.55,5.15-17.14,7.67-25.72a4.19,4.19,0,0,1,4.33-3.37c2.5,0,5,0,7.49,0,8.81,0,8.91,0,11.6,8.16,2.16,6.61,4,13.32,6.06,20,1,3.35.33,5-3.59,4.87C116.46,139.8,111.29,140,106.13,140Z"/><path class="cls-6" d="M106.4,163c-7.32,0-14.63-.08-22,0-3.15,0-4.07-.69-3-4.05,4.52-14.66,1.89-11.7,15.85-11.95,9-.15,18,.08,26.94-.08,3.29-.06,5.39.57,5.77,4.38a27.08,27.08,0,0,0,2,7.15c1.58,3.91-.21,4.61-3.64,4.55C121,162.9,113.72,163,106.4,163Z"/><path class="cls-7" d="M106.17,100c-1.77-1.14-6,2.2-6.34-2.47-.46-6,3.1-10.57,7.26-10.52,3.28,0,6.52,5.1,6.51,10.17C113.59,99.92,113.38,100,106.17,100Z"/><path class="cls-8" d="M112.69,57.66c.08,3.93-2.32,6-5.75,6-3.59,0-6.22-2-6.32-6.13-.09-3.83,2.8-6.84,6.39-6.54C111,51.34,112.67,53.84,112.69,57.66Z"/></svg>