<svg id="Layer_1" data-name="Layer 1" xmlns="http://www.w3.org/2000/svg" viewBox="0 0 212 212"><defs><style>.cls-1{fill:#3991ac;}.cls-2{fill:#a3fbd2;}.cls-3{fill:#a2fcd1;}.cls-4{fill:#fd8c8c;}.cls-5{fill:#c0eefe;}.cls-6{fill:#beedfd;}.cls-7{fill:#beecfc;}</style></defs><title>why-icon</title><path class="cls-1" d="M.4,87.12c3.88-6.84,6.7-13.83,6.3-22.07-.49-10.13-.14-20.3-.11-30.46,0-7,.51-7.48,7.22-7.48,24.14,0,48.29.1,72.43-.09,4.64,0,6.22,1.67,6.16,6.07-.14,9.32.41,18.68-.18,28-.56,9,2,17,5.56,25,3,6.55,1.5,9-5.62,9q-42.7.07-85.42,0a44.59,44.59,0,0,1-6.34-.9Zm49.21-18c10.16,0,20.32-.1,30.48.06,3.17,0,4.46-.83,4.39-4.21-.19-8.66-.17-17.32,0-26,.06-3.12-1.13-4-4.09-4q-30.48.14-61,0c-2.93,0-4.19.79-4.13,4,.16,8.65.18,17.32,0,26-.07,3.34,1.15,4.29,4.36,4.24C29.62,69.06,39.62,69.16,49.61,69.16Zm-.17,18c11.8,0,23.61-.18,35.4.1,4.53.11,4.55-1.49,3.18-4.89-1.44-3.58-3.31-5.4-7.69-5.34-20.27.28-40.55.12-60.83.13A16.13,16.13,0,0,0,16,77.2c-4.34,1-4.89,5.18-5.16,8.2S14.22,87,16,87C27.17,87.19,38.31,87.11,49.44,87.11Z"/><path class="cls-1" d="M128.45,129.34l71.74-.18c1.17,0,2.35,0,3.15,1.07,0,12.41,0,24.83.11,37.24,0,1.66-.89,3.79,1.56,4.7.52,5.57,3.08,10.46,5.22,15.47,2.57,6,1.77,7.48-4.47,7.48H117.94c-6,0-6.92-1.1-4.25-6.18a50.88,50.88,0,0,0,5.9-27.32c-.46-8.12,0-16.29.13-24.43A14,14,0,0,0,128.45,129.34Zm33.69,41.81c10.32,0,20.64-.1,31,.06,3.2,0,4.42-.89,4.35-4.23-.19-8.65-.17-17.31,0-26,.06-3.11-1.11-4-4.08-4q-31,.14-61.92,0c-3,0-4.14.86-4.08,4,.16,8.65.18,17.31,0,26-.07,3.32,1.13,4.29,4.34,4.24C141.83,171.05,152,171.15,162.14,171.15Zm-.13,18c12.13,0,24.27,0,36.4,0,1.23,0,3.37.94,3.43-1.48.1-4.32-4.26-8.48-8.65-8.48-20.11,0-40.23.2-60.34-.15-5-.08-7.36,1.52-9.1,6-1.41,3.64-.62,4.21,2.85,4.17C138.4,189.05,150.21,189.13,162,189.13Z"/><path class="cls-1" d="M105.65,55.19c24.34.5,48.23,21.27,52.61,45.27a49,49,0,0,1,1.08,10.86c-.1,2.48-1.12,4.36-3.62,4.59-2.84.26-4.07-1.63-4.38-4.31-1.09-9.45-2.76-18.77-8.5-26.7-8.89-12.29-20.42-20.18-36-21h-.49c-3.59-.16-7.77-.32-7.6-5.06C98.87,54.33,103,55.3,105.65,55.19Z"/><path class="cls-1" d="M100.1,168.93c-27.18-1.36-49.61-21.39-53.71-47.67-.46-3-1.19-5.87-.91-8.88.22-2.48,1.53-4,4.09-4.18,2.81-.17,3.67,1.5,3.88,4,1.1,13.69,5.49,26,15.93,35.44,8.51,7.7,18.44,12.31,30.11,12.6.33,0,.67,0,1,0,3,.19,6,.8,5.8,4.61S103.18,169.12,100.1,168.93Z"/><path class="cls-2" d="M38.05,185.11c-7.88,0-12.65-4.33-12.64-11.49a12.72,12.72,0,0,1,13.18-12.5c6.92.09,12.85,6,12.66,12.71C51.06,180.7,45.89,185.11,38.05,185.11Zm0-6.07c3-1,5.59-2.17,5.29-5.71-.24-3-2.11-5.1-5.1-5s-4.8,2.21-4.86,5.25S35.37,178.22,38.05,179Z"/><path class="cls-3" d="M207.38,30.83A4,4,0,0,1,206,34.31c-2.88,2.51-5.57,5.24-8.27,7.94-2.46,2.46-4.87,2.59-7.35.12-14-14-12.45-10.67.14-23.63,2.28-2.34,5.2-2.63,7.41,0a61.78,61.78,0,0,0,8,8.14C207.39,28,207.38,29.35,207.38,30.83Zm-9-.29c-.72-2-2-3.91-3.94-4a4,4,0,0,0,.09,8.06C196.42,34.57,197.76,32.6,198.38,30.54Z"/><path class="cls-4" d="M119.2,110.77c-5.16,3.12-2.72,7,0,11.39,1.17,1.88-1.53,3.48-3.11,4.44s-3-.19-4-1.74c-2.13-3.29-4.34-3.1-6.43.06-1.7,2.58-3.34,2.63-5.56.43s-2.63-4.25-.08-6.19c2.78-2.12,3.29-4,.15-6.14-2.64-1.84-2.47-4.34-.55-6.31,1.75-1.79,4.09-2.3,6,.29,2.24,3.11,4.52,3,6.68-.06,1.31-1.84,2.9-2,4.79-1.07C118.73,106.66,119.65,107.87,119.2,110.77Z"/><path class="cls-1" d="M205,172.17c-2.45-.91-1.55-3-1.56-4.7-.09-12.41-.09-24.83-.11-37.24,1.68.66,2,2.06,2,3.64Q205.18,153,205,172.17Z"/><path class="cls-1" d="M128.45,129.34a14,14,0,0,1-8.73,7.85C119.09,129.63,120,128.8,128.45,129.34Z"/><path class="cls-5" d="M49.61,69.16c-10,0-20-.1-30,.06-3.21,0-4.43-.9-4.36-4.24.19-8.66.17-17.33,0-26-.06-3.16,1.2-4,4.13-4q30.48.14,61,0c3,0,4.15.86,4.09,4-.16,8.66-.18,17.32,0,26,.07,3.38-1.22,4.25-4.39,4.21C69.93,69.06,59.77,69.16,49.61,69.16Z"/><path class="cls-6" d="M49.44,87.11c-11.13,0-22.27.08-33.4-.08-1.82,0-5.45,1.46-5.18-1.63s.82-7.21,5.16-8.2a16.13,16.13,0,0,1,3.48-.09c20.28,0,40.56.15,60.83-.13,4.38-.06,6.25,1.76,7.69,5.34,1.37,3.4,1.35,5-3.18,4.89C73.05,86.93,61.24,87.11,49.44,87.11Z"/><path class="cls-5" d="M162.14,171.15c-10.16,0-20.31-.1-30.46.06-3.21,0-4.41-.92-4.34-4.24.19-8.65.17-17.31,0-26-.06-3.11,1.11-4,4.08-4q31,.14,61.92,0c3,0,4.14.87,4.08,4-.16,8.65-.18,17.31,0,26,.07,3.34-1.15,4.28-4.35,4.23C182.78,171.05,172.46,171.15,162.14,171.15Z"/><path class="cls-7" d="M162,189.13c-11.8,0-23.61-.08-35.41.05-3.47,0-4.26-.53-2.85-4.17,1.74-4.52,4.08-6.12,9.1-6,20.11.35,40.23.14,60.34.15,4.39,0,8.75,4.16,8.65,8.48-.06,2.42-2.2,1.47-3.43,1.48C186.28,189.16,174.14,189.13,162,189.13Z"/></svg>