<svg id="Layer_1" data-name="Layer 1" xmlns="http://www.w3.org/2000/svg" viewBox="0 0 212 212"><defs><style>.cls-1{fill:#3991ac;}.cls-2{fill:#a3fcd1;}.cls-3{fill:#fd8b8b;}.cls-4{fill:#c0eefd;}</style></defs><title>why-icon</title><path class="cls-1" d="M41.24,159.19c-13.45-9.65-20.7-23.37-26.13-38.57a66.39,66.39,0,0,1-2-36.37C19.68,54.2,39.68,29.5,74,21a70.57,70.57,0,0,1,28.65-1.4c15.31,2.58,29.68,8.58,41.23,19.64,5.75,5.5,11.81,10.84,14.69,18.64,0,3.59,1.83,7.6-2.26,10.29-7.59-14-17.73-25.63-32.21-32.91-3.08-1.55-6.1-3.83-10.63-2.8,3.26,3.64,6.63,6.35,9.1,9.88,9.49,13.55,14.2,28.79,15.85,45.06.29,2.8,1.18,3.77,3.91,3.69a134.29,134.29,0,0,1,14.47,0c4.07.33,5.42-1.46,5.43-5.07,4.54,3.54,3.47,8,2.19,12.6a223.25,223.25,0,0,1-24.13.09c-.41-.1-1-.42-1.21-.25-.68.47-.45,1,.13,1.51.2,2.45-1.16,3.79-3.37,4.11a3.6,3.6,0,0,1-4.1-2.9c-.59-2.15-2-2.27-3.79-2.27C117,99,106,99,95,98.92c-2.91,0-3.66,1.22-3.65,3.89.06,21.26,0,42.52,0,63.77,0,1.33-.1,2.7,1.21,3.59a4,4,0,0,1,1.65,5.21c-1,2.37-3.1,2.78-5.4,2.6-1.49-.11-3-.27-4.45-.4-.89-2.24-2.75-1.28-4.32-1.31-3.68.3-7.16-.74-10.67-1.6-.27-1.3-1.15-1.6-2.33-1.41-2.07.22-3.83-.77-5.67-1.47-.21-1.33-1.06-1.72-2.29-1.55l-1.71-.32C52.89,165.06,47.89,160.89,41.24,159.19Zm50.17-98.1c0,8.16.16,16.32-.07,24.47-.11,4,1,5.68,5.32,5.56,9.65-.26,19.32-.26,29,0,4,.11,5.35-1.14,4.92-5.11-1.58-14.65-6.2-28.14-14.79-40.2A35.63,35.63,0,0,0,98.6,32.72c-5.69-2.09-7.18-1-7.19,4.9Q91.4,49.37,91.41,61.09Zm-7.9,72.52c0-10.15-.1-20.3.06-30.44.05-3.29-1.09-4.34-4.33-4.27-7.81.19-15.64.21-23.45,0-3.5-.1-4.53,1-4.56,4.55A98.28,98.28,0,0,0,57.84,139C62,150.07,68,159.9,78.53,166.21c4.38,2.62,5,2.27,5-2.67C83.53,153.56,83.51,143.58,83.51,133.61Zm0-71.74c0-8.48-.05-17,0-25.46,0-3-1.11-3.59-3.55-2.06C75.63,37.1,71.48,40,68.23,44.21,58.76,56.4,54.31,70.38,52.08,85.44c-.72,4.9.6,5.79,4.91,5.66,7.15-.22,14.32-.23,21.47,0,4,.14,5.22-1.41,5.11-5.26C83.36,77.86,83.51,69.86,83.51,61.87ZM63.73,164.36c-3.44-5.24-6.57-9.25-8.9-13.69-7.74-14.67-11.25-30.47-11.34-47,0-3.72-1.09-5.05-4.85-4.79a80.23,80.23,0,0,1-13,0c-4.67-.44-5.7,1.48-5.35,5.72C21.6,120.42,27.82,134.11,38,146,44.76,153.92,53.13,159.68,63.73,164.36ZM69,32.71c-4-1.07-6.35.34-8.65,1.51-21.89,11.17-34.84,29-39.52,53.06-.63,3.25,1,3.76,3.53,3.76,5.33,0,10.65-.08,16,0,3.06.06,3.94-1.4,4.1-4.25C45.18,73,49.81,60.3,56.33,48.2,59.42,42.46,64,38,69,32.71Z"/><path class="cls-1" d="M150.74,199.1q-23.49,0-47,0c-5.69,0-6-.5-4.36-6.11q2.82-9.57,5.64-19.14a33.78,33.78,0,0,0,1.38-9.82c-.1-14.5,0-29,0-43.49,0-6.59.68-7.3,7.05-7.3q38,0,76,0c6.23,0,7.81,1.61,7.83,8.08,0,12.49.37,25-.11,37.48-.38,9.7,1.56,18.81,4.53,27.86.37,1.11.79,2.2,1.11,3.32,2.23,7.77,1.26,9.11-6.54,9.11Zm.68-78c-10.81,0-21.63.11-32.45-.06-3.33,0-4.73.77-4.67,4.43.2,12.15.16,24.3,0,36.44,0,3.25,1,4.32,4.28,4.31q33-.17,65.9,0c3.67,0,5-1.26,5-4.94-.15-11.64-.21-23.3,0-34.94.09-4.33-1.65-5.38-5.62-5.3C173.06,121.25,162.24,121.12,151.42,121.12Zm-.08,71.95q19,0,38,0c5.42,0,6-.88,4.51-6.19-.78-2.71-1.79-5.37-2.35-8.13-.7-3.46-2.24-4.81-6.07-4.77-20.65.22-41.31,0-62,.13-11.57.06-10.44-2-13.28,10.3-.23,1-.62,1.89-.91,2.85-1.61,5.31-1.29,5.8,4.11,5.8C126,193.09,138.68,193.07,151.34,193.07Z"/><path class="cls-2" d="M36.74,203.09c-8.67,0-14.31-5-14.29-12.69,0-7.07,6.8-13.27,14.48-13.24,6.59,0,13.27,6.47,13.35,12.88C50.38,197.61,44.69,203.09,36.74,203.09Zm-.57-7c3.88.15,5.67-2.24,6-5.37s-1.87-5.14-5-5.58c-3.86-.55-6.15,1.75-6.45,5.19S33.06,195.49,36.17,196.08Z"/><path class="cls-2" d="M202.39,67.35c-.06,1.27.15,2.54-1,3.63-3.31,3-6.5,6.17-9.71,9.31-2.48,2.43-4.91,2.45-7.36,0-2.93-2.94-5.85-5.91-8.82-8.81-2.65-2.58-2.73-5.07-.08-7.73,3.4-3.41,6.69-6.92,10.05-10.37,1.89-2,3.95-1.85,5.5.2a72.05,72.05,0,0,0,10,10.31A3.76,3.76,0,0,1,202.39,67.35Zm-9.93.42c-.61-2.3-2.06-4.17-4.21-4.45-2.4-.31-4.22,1.81-4.51,3.84-.38,2.58,1.86,4.5,4.17,4.69S191.43,69.76,192.46,67.77Z"/><path class="cls-3" d="M29.46,13.49c-4.4,3.75-2.49,8.28-.17,13a2.35,2.35,0,0,1-1.4,3.29c-1.93.51-4.14,1-5.58-.85C20,26,18.18,25.68,15.7,28.75a4.25,4.25,0,0,1-6.26.46A4.19,4.19,0,0,1,9.78,23c2.83-2.45,2.91-4.27,0-6.69a4,4,0,0,1-.46-5.85,4,4,0,0,1,6.19-.08c2.62,2.76,4.61,2.46,7-.14,1.38-1.51,3.37-1.2,5.17-.76S29.28,11.33,29.46,13.49Z"/><path class="cls-1" d="M164.39,98.66c1.28-4.55,2.35-9.06-2.19-12.6q-3-9-5.92-17.9c4.09-2.69,2.21-6.7,2.26-10.29,2.84,1.39,3.34,4.41,4.5,6.85a76.64,76.64,0,0,1,7.41,29C170.75,98.71,168.77,99.87,164.39,98.66Z"/><path class="cls-1" d="M41.24,159.19c6.65,1.7,11.65,5.87,16.2,10.73C51.15,167.69,45.53,164.44,41.24,159.19Z"/><path class="cls-1" d="M80.11,176.27c1.57,0,3.43-.93,4.32,1.31C82.69,178.15,81.07,178.29,80.11,176.27Z"/><path class="cls-1" d="M139.18,100c-.58-.46-.81-1-.13-1.51.24-.17.8.15,1.21.25Z"/><path class="cls-1" d="M59.15,170.24c1.23-.17,2.08.22,2.29,1.55C60.14,172.07,59.56,171.28,59.15,170.24Z"/><path class="cls-1" d="M67.11,173.26c1.18-.19,2.06.11,2.33,1.41C68.13,175.09,67.57,174.27,67.11,173.26Z"/><path class="cls-4" d="M91.41,61.09q0-11.73,0-23.47c0-5.92,1.5-7,7.19-4.9a35.63,35.63,0,0,1,17.15,13.09C124.34,57.87,129,71.36,130.54,86c.43,4-.91,5.22-4.92,5.11-9.64-.26-19.31-.26-29,0-4.29.12-5.43-1.55-5.32-5.56C91.57,77.41,91.41,69.25,91.41,61.09Z"/><path class="cls-4" d="M83.51,133.61c0,10,0,19.95,0,29.93,0,4.94-.59,5.29-5,2.67C68,159.9,62,150.07,57.84,139a98.28,98.28,0,0,1-6.61-35.52c0-3.5,1.06-4.65,4.56-4.55,7.81.21,15.64.19,23.45,0,3.24-.07,4.38,1,4.33,4.27C83.41,113.31,83.51,123.46,83.51,133.61Z"/><path class="cls-4" d="M83.51,61.87c0,8-.15,16,.06,24,.11,3.85-1.11,5.4-5.11,5.26-7.15-.23-14.32-.22-21.47,0-4.31.13-5.63-.76-4.91-5.66,2.23-15.06,6.68-29,16.15-41.23C71.48,40,75.63,37.1,80,34.35c2.44-1.53,3.58-1,3.55,2.06C83.46,44.9,83.51,53.39,83.51,61.87Z"/><path class="cls-4" d="M63.73,164.36c-10.6-4.68-19-10.44-25.71-18.32-10.2-11.93-16.42-25.62-17.7-41.44-.35-4.24.68-6.16,5.35-5.72a80.23,80.23,0,0,0,13,0c3.76-.26,4.83,1.07,4.85,4.79.09,16.52,3.6,32.32,11.34,47C57.16,155.11,60.29,159.12,63.73,164.36Z"/><path class="cls-4" d="M69,32.71C64,38,59.42,42.46,56.33,48.2,49.81,60.3,45.18,73,44.42,86.82c-.16,2.85-1,4.31-4.1,4.25-5.32-.11-10.64,0-16,0-2.51,0-4.16-.51-3.53-3.76,4.68-24,17.63-41.89,39.52-53.06C62.64,33.05,65,31.64,69,32.71Z"/><path class="cls-4" d="M156.28,68.16q3,9,5.92,17.9c0,3.61-1.36,5.4-5.43,5.07a134.29,134.29,0,0,0-14.47,0c-2.73.08-3.62-.89-3.91-3.69-1.65-16.27-6.36-31.51-15.85-45.06-2.47-3.53-5.84-6.24-9.1-9.88,4.53-1,7.55,1.25,10.63,2.8C138.55,42.53,148.69,54.11,156.28,68.16Z"/><path class="cls-4" d="M151.42,121.12c10.82,0,21.64.13,32.45-.06,4-.08,5.71,1,5.62,5.3-.23,11.64-.17,23.3,0,34.94,0,3.68-1.31,5-5,4.94q-33-.18-65.9,0c-3.27,0-4.32-1.06-4.28-4.31.15-12.14.19-24.29,0-36.44-.06-3.66,1.34-4.48,4.67-4.43C129.79,121.23,140.61,121.12,151.42,121.12Z"/><path class="cls-4" d="M151.34,193.07c-12.66,0-25.32,0-38,0-5.4,0-5.72-.49-4.11-5.8.29-1,.68-1.88.91-2.85,2.84-12.29,1.71-10.24,13.28-10.3,20.65-.1,41.31.09,62-.13,3.83,0,5.37,1.31,6.07,4.77.56,2.76,1.57,5.42,2.35,8.13,1.53,5.31.91,6.18-4.51,6.19Q170.32,193.09,151.34,193.07Z"/></svg>