<?xml version="1.0" encoding="utf-8"?>
<!-- Generator: Adobe Illustrator 22.1.0, SVG Export Plug-In . SVG Version: 6.00 Build 0)  -->
<svg version="1.1" id="Layer_1" xmlns="http://www.w3.org/2000/svg" xmlns:xlink="http://www.w3.org/1999/xlink" x="0px" y="0px"
	 viewBox="0 0 503 384.1" style="enable-background:new 0 0 503 384.1;" xml:space="preserve">
<style type="text/css">
	.st0{clip-path:url(#SVGID_2_);}
	.st1{fill:url(#SVGID_3_);}
	.st2{fill:url(#SVGID_4_);}
	.st3{fill:url(#SVGID_5_);}
	.st4{fill:url(#SVGID_6_);}
	.st5{fill:url(#SVGID_7_);}
	.st6{fill:url(#SVGID_8_);}
</style>
<title>TechSwap Logo</title>
<g>
	<defs>
		<path id="SVGID_1_" d="M446.2,51.9c-9.2-31.5-33-41.8-63.5-29.3C345.8,37.6,313.8,61,281.5,83.7c-44.6,31.3-88.6,63.4-133.1,94.7
			c-11.3,7.9-23.8,14.2-37.1,22c-7.4-41.4-9.8-80.5-1.5-119.8c0.6-2.9,6.5-6.9,9.5-6.6c15,1.9,30,4.9,44.8,8.1
			c1.5,0.3,3.3,5,2.9,7.3c-0.9,5.7-3,11.2-5.4,19.3l81.9-31.8C227,52.2,211.5,29.2,194.9,4.3c-3.7,10.3-6.5,17.9-9.3,25.8
			c-3.8-1.1-6.4-2.1-9.2-2.6c-19.7-3.3-39.4-8.8-59.1-9.3c-31.1-0.7-53,15.4-60,44.7c-13.1,54.6-11.3,109.4,4.9,163.4
			c3.5,11.6,10.1,21.3,20.8,27.6c16.3,9.7,32.2,4.6,47.5-2.4c27.1-12.4,52-28.3,76.2-45.2v142.1l46.7,35.6h0.6V172.9
			c34.6-24.7,69.1-49.7,103.9-74.2c11.6-8.2,24.4-14.6,38.5-22.9c1.7,10.8,3.3,19.5,4.4,28.2c3.5,28.6,3.6,57.3-1,85.8
			c-1.9,11.4-4.4,14.6-15.6,13.2c-13.5-1.6-26.7-5.4-40-8.4c-5-1.1-5.5-4.1-3.6-8.6c2.1-5.1,3.2-10.5,5.5-18.3l-81.8,31.5l48.7,72.8
			c3.7-10.4,6.3-17.7,9.3-26.2c3.8,1.2,6.5,2,9.2,2.9c20.8,6.8,41.8,11.4,63.9,9.3c29.5-2.8,48.6-16.9,55.6-45.7
			C463.6,158.8,461.7,104.9,446.2,51.9z"/>
	</defs>
	<clipPath id="SVGID_2_">
		<use xlink:href="#SVGID_1_"  style="overflow:visible;"/>
	</clipPath>
	<g class="st0">
		
			<linearGradient id="SVGID_3_" gradientUnits="userSpaceOnUse" x1="607.1191" y1="-128.7408" x2="210.9572" y2="-269.9472" gradientTransform="matrix(1 0 0 -1 -143.81 -29.21)">
			<stop  offset="0" style="stop-color:#5BA4D9"/>
			<stop  offset="0.66" style="stop-color:#60C1A1"/>
		</linearGradient>
		<path class="st1" d="M446.2,51.9c-9.2-31.5-33-41.8-63.5-29.3C345.8,37.6,313.8,61,281.5,83.7c-44.6,31.3-88.6,63.4-133.1,94.7
			c-11.3,7.9-23.8,14.2-37.1,22c-7.4-41.4-9.8-80.5-1.5-119.8c0.6-2.9,6.5-6.9,9.5-6.6c15,1.9,30,4.9,44.8,8.1
			c1.5,0.3,3.3,5,2.9,7.3c-0.9,5.7-3,11.2-5.4,19.3l81.9-31.8C227,52.2,211.5,29.2,194.9,4.3c-3.7,10.3-6.5,17.9-9.3,25.8
			c-3.8-1.1-6.4-2.1-9.2-2.6c-19.7-3.3-39.4-8.8-59.1-9.3c-31.1-0.7-53,15.4-60,44.7c-13.1,54.6-11.3,109.4,4.9,163.4
			c3.5,11.6,10.1,21.3,20.8,27.6c16.3,9.7,32.2,4.6,47.5-2.4c27.1-12.4,52-28.3,76.2-45.2v142.1l46.7,35.6h0.6V172.9
			c34.6-24.7,69.1-49.7,103.9-74.2c11.6-8.2,24.4-14.6,38.5-22.9c1.7,10.8,3.3,19.5,4.4,28.2c3.5,28.6,3.6,57.3-1,85.8
			c-1.9,11.4-4.4,14.6-15.6,13.2c-13.5-1.6-26.7-5.4-40-8.4c-5-1.1-5.5-4.1-3.6-8.6c2.1-5.1,3.2-10.5,5.5-18.3l-81.8,31.5l48.7,72.8
			c3.7-10.4,6.3-17.7,9.3-26.2c3.8,1.2,6.5,2,9.2,2.9c20.8,6.8,41.8,11.4,63.9,9.3c29.5-2.8,48.6-16.9,55.6-45.7
			C463.6,158.8,461.7,104.9,446.2,51.9z"/>
		
			<linearGradient id="SVGID_4_" gradientUnits="userSpaceOnUse" x1="216.3233" y1="-223.7299" x2="196.2433" y2="-176.4199" gradientTransform="matrix(1 0 0 -1 -143.81 -29.21)">
			<stop  offset="0" style="stop-color:#599B87;stop-opacity:0.4"/>
			<stop  offset="0.11" style="stop-color:#56A18D;stop-opacity:0.33"/>
			<stop  offset="0.47" style="stop-color:#4DB09B;stop-opacity:0.15"/>
			<stop  offset="0.77" style="stop-color:#48BAA4;stop-opacity:4.000000e-02"/>
			<stop  offset="1" style="stop-color:#46BDA7;stop-opacity:0"/>
		</linearGradient>
		<path class="st2" d="M111.3,200.3c0,0-54.2,29.5-100,8s61.6-57.8,61.6-57.8l53-4.4L111.3,200.3z"/>
		
			<linearGradient id="SVGID_5_" gradientUnits="userSpaceOnUse" x1="538.23" y1="-106.13" x2="538.23" y2="-106.13" gradientTransform="matrix(1 0 0 -1 -143.81 -29.21)">
			<stop  offset="0" style="stop-color:#4362AC;stop-opacity:0.5"/>
			<stop  offset="0.28" style="stop-color:#4F88A8;stop-opacity:0.3"/>
			<stop  offset="0.57" style="stop-color:#58A7A4;stop-opacity:0.13"/>
			<stop  offset="0.81" style="stop-color:#5EBAA2;stop-opacity:4.000000e-02"/>
			<stop  offset="1" style="stop-color:#60C1A1;stop-opacity:0"/>
		</linearGradient>
		<path class="st3" d="M394.4,76.9"/>
		
			<linearGradient id="SVGID_6_" gradientUnits="userSpaceOnUse" x1="523.37" y1="-93.755" x2="459.39" y2="-93.755" gradientTransform="matrix(1 0 0 -1 -143.81 -29.21)">
			<stop  offset="0" style="stop-color:#4362AC;stop-opacity:0.5"/>
			<stop  offset="0.28" style="stop-color:#4F88A8;stop-opacity:0.3"/>
			<stop  offset="0.57" style="stop-color:#58A7A4;stop-opacity:0.13"/>
			<stop  offset="0.81" style="stop-color:#5EBAA2;stop-opacity:4.000000e-02"/>
			<stop  offset="1" style="stop-color:#60C1A1;stop-opacity:0"/>
		</linearGradient>
		<path class="st4" d="M373.4,26.6c0,0,27.6,17.9,22.8,49.3s-58.3,53.2-58.3,53.2L308,56.9L345.2,0L373.4,26.6z"/>
		
			<linearGradient id="SVGID_7_" gradientUnits="userSpaceOnUse" x1="197.7381" y1="-86.9558" x2="282.3882" y2="-49.2658" gradientTransform="matrix(1 0 0 -1 -143.81 -29.21)">
			<stop  offset="0" style="stop-color:#BADCA0;stop-opacity:0.5"/>
			<stop  offset="0.12" style="stop-color:#AAD7A0;stop-opacity:0.41"/>
			<stop  offset="0.38" style="stop-color:#8ACEA1;stop-opacity:0.23"/>
			<stop  offset="0.63" style="stop-color:#73C7A1;stop-opacity:0.11"/>
			<stop  offset="0.84" style="stop-color:#65C2A1;stop-opacity:3.000000e-02"/>
			<stop  offset="1" style="stop-color:#60C1A1;stop-opacity:0"/>
		</linearGradient>
		<path class="st5" d="M49.4,112.4c0,0,36.8-41,69.9-38.5s19.9-72.2,19.9-72.2L5.8,26.5L49.4,112.4z"/>
		
			<linearGradient id="SVGID_8_" gradientUnits="userSpaceOnUse" x1="576.9" y1="-249.14" x2="482.17" y2="-249.14" gradientTransform="matrix(1 0 0 -1 -143.81 -29.21)">
			<stop  offset="0" style="stop-color:#4362AC;stop-opacity:0.5"/>
			<stop  offset="0.28" style="stop-color:#4F88A8;stop-opacity:0.3"/>
			<stop  offset="0.57" style="stop-color:#58A7A4;stop-opacity:0.13"/>
			<stop  offset="0.81" style="stop-color:#5EBAA2;stop-opacity:4.000000e-02"/>
			<stop  offset="1" style="stop-color:#60C1A1;stop-opacity:0"/>
		</linearGradient>
		<path class="st6" d="M459.2,167.1c0,0-16.1,34.7-66.1,35.9s0.4,69.7,0.4,69.7l73.5-15.4c0,0,24.4-60.7,23.9-61.5
			S459.2,167.1,459.2,167.1z"/>
	</g>
</g>
</svg>
